<?xml version="1.0" standalone="no"?>
<!DOCTYPE svg PUBLIC "-//W3C//DTD SVG 20010904//EN"
 "http://www.w3.org/TR/2001/REC-SVG-20010904/DTD/svg10.dtd">
<svg version="1.0" xmlns="http://www.w3.org/2000/svg"
 width="158.000000pt" height="158.000000pt" viewBox="0 0 158.000000 158.000000"
 preserveAspectRatio="xMidYMid meet">
<metadata>
Created by potrace 1.14, written by Peter Selinger 2001-2017
</metadata>
<g transform="translate(0.000000,158.000000) scale(0.100000,-0.100000)"
fill="#000000" stroke="none">
<path d="M810 1455 c0 -17 -2 -17 -10 -5 -7 11 -10 12 -10 2 0 -9 -7 -11 -21
-7 -16 6 -20 4 -13 -6 6 -11 5 -12 -7 -2 -12 10 -18 10 -27 1 -9 -9 -12 -9
-12 2 0 9 -5 8 -16 -6 -8 -10 -13 -13 -9 -6 3 6 1 12 -4 12 -6 0 -11 -4 -11
-9 0 -5 -11 -8 -25 -7 -13 2 -22 -1 -19 -6 3 -5 0 -9 -7 -7 -27 3 -40 -1 -34
-11 3 -6 -1 -7 -9 -4 -9 3 -16 1 -16 -5 0 -6 -5 -11 -11 -11 -5 0 -7 6 -4 13
4 6 0 4 -9 -7 -8 -10 -19 -15 -25 -11 -6 3 -11 -1 -11 -9 0 -9 -8 -16 -19 -16
-10 0 -25 -8 -32 -17 -12 -14 -12 -16 0 -8 9 5 12 4 7 -3 -3 -6 -15 -9 -26 -7
-14 3 -17 -1 -13 -12 4 -11 2 -14 -5 -9 -7 4 -12 3 -12 -3 0 -6 -12 -18 -27
-26 -16 -9 -20 -14 -10 -11 11 3 15 2 12 -4 -3 -6 -12 -10 -18 -10 -7 0 -20
-14 -29 -31 -11 -18 -13 -27 -5 -24 6 4 1 -3 -13 -15 -14 -12 -18 -18 -10 -14
13 7 13 6 0 -12 -8 -10 -19 -22 -25 -26 -6 -5 -4 -8 4 -8 10 0 8 -7 -8 -21
-17 -16 -21 -28 -16 -46 4 -16 2 -22 -5 -18 -14 9 -13 -8 3 -24 10 -12 9 -13
-7 -7 -16 5 -17 4 -6 -9 10 -12 10 -15 0 -15 -9 0 -9 -4 1 -17 10 -11 10 -14
2 -9 -7 4 -13 2 -13 -3 0 -6 6 -11 13 -11 9 0 8 -3 -2 -9 -7 -5 -10 -14 -7
-20 4 -6 2 -11 -4 -11 -6 0 -8 -5 -4 -12 4 -6 7 -35 6 -65 0 -38 3 -51 11 -46
7 4 6 -1 -2 -10 -7 -9 -11 -17 -7 -17 3 0 -10 -20 -29 -45 -31 -41 -39 -64
-48 -131 -2 -12 -18 -34 -36 -50 -107 -90 -68 -266 67 -304 50 -14 874 -13
925 1 52 14 101 60 122 114 9 26 19 44 22 41 3 -2 22 13 43 35 21 21 43 39 49
39 6 0 10 6 8 13 -1 6 4 11 11 9 8 -1 11 2 8 7 -4 5 7 24 24 42 16 18 27 35
24 38 -3 3 -9 -1 -14 -9 -6 -8 -10 -10 -10 -4 0 6 10 19 23 28 12 9 16 14 10
11 -7 -3 -13 -2 -13 3 0 6 7 13 16 16 8 3 13 10 10 14 -3 5 1 18 8 28 10 14
11 24 4 38 -8 15 -7 18 5 13 15 -5 18 15 5 28 -7 7 2 45 11 45 3 0 7 11 7 25
1 14 -1 23 -5 20 -4 -2 -8 2 -8 10 0 8 4 12 8 9 4 -2 6 10 4 28 -2 18 -4 33
-5 33 -1 0 -3 16 -5 35 -3 23 -1 29 5 20 7 -11 9 -10 7 7 0 12 -4 20 -8 17 -4
-2 -9 5 -12 16 -3 13 -1 18 6 13 8 -4 8 -2 0 9 -7 8 -9 18 -5 22 4 4 -2 14
-12 22 -13 9 -15 14 -6 14 9 0 8 6 -6 22 -10 12 -13 18 -6 14 11 -7 11 -4 1
12 -7 12 -16 19 -20 17 -3 -3 -5 6 -4 19 2 13 -2 29 -7 37 -7 10 -8 9 -3 -6 4
-15 3 -17 -5 -9 -6 6 -13 20 -14 30 -2 11 -8 19 -14 19 -6 0 -14 4 -19 9 -5 5
-3 6 5 2 7 -4 12 -1 12 9 0 9 -4 14 -9 11 -4 -3 -19 7 -32 22 -18 20 -19 23
-4 12 18 -14 19 -14 7 2 -8 10 -20 14 -29 11 -11 -4 -14 -2 -9 5 4 7 2 12 -4
12 -6 0 -9 4 -5 9 3 6 -3 8 -15 6 -11 -2 -19 1 -17 8 1 6 -8 13 -20 15 -16 2
-23 11 -24 25 0 21 -1 21 -9 2 -8 -18 -9 -18 -9 -2 -1 10 -5 16 -10 12 -5 -3
-17 2 -25 11 -11 11 -16 12 -16 3 0 -7 -7 -5 -16 7 -8 10 -13 13 -9 7 4 -9 1
-11 -9 -7 -9 3 -13 11 -9 18 4 6 -1 5 -10 -3 -11 -9 -17 -10 -17 -2 0 6 -14
11 -31 11 -19 0 -28 4 -23 11 4 8 0 8 -15 0 -15 -8 -21 -9 -21 -1 0 6 -4 8
-10 5 -5 -3 -20 0 -32 6 -21 11 -22 11 -9 -5 12 -14 12 -16 -3 -10 -9 3 -16 9
-16 13 0 4 -7 8 -15 8 -8 0 -12 -4 -9 -9 3 -4 1 -8 -5 -8 -5 0 -12 6 -14 13
-4 10 -6 10 -6 0 -1 -19 -28 -16 -40 5 -10 16 -10 15 -11 -3z m-537 -390 c-3
-9 -8 -14 -10 -11 -3 3 -2 9 2 15 9 16 15 13 8 -4z"/>
<path d="M1476 733 c-6 -14 -5 -15 5 -6 7 7 10 15 7 18 -3 3 -9 -2 -12 -12z"/>
<path d="M1309 403 c-13 -16 -12 -17 4 -4 16 13 21 21 13 21 -2 0 -10 -8 -17
-17z"/>
</g>
</svg>
